# Blender v2.79 (sub 0) OBJ File: 'clockdoor.blend'
# www.blender.org
o Cube
v 0.896289 0.273072 -0.081742
v 0.896289 0.273072 0.268994
v 0.828735 0.273072 0.268994
v 0.828735 0.273072 -0.081742
v 0.896289 0.882063 -0.081741
v 0.896289 0.882063 0.268994
v 0.828735 0.882063 0.268994
v 0.828735 0.882063 -0.081742
vt 0.697391 0.302609
vt 0.302609 0.697391
vt 0.302609 0.302609
vt 0.697391 0.302609
vt 0.302609 0.697391
vt 0.302609 0.302609
vt 0.697391 0.302609
vt 0.302609 0.697391
vt 0.697391 0.302609
vt 0.302609 0.697391
vt 0.302609 0.302609
vt 0.302609 0.302609
vt 0.697391 0.697391
vt 0.697391 0.302609
vt 0.302609 0.697391
vt 0.697391 0.697391
vt 0.697391 0.697391
vt 0.697391 0.697391
vt 0.697391 0.302609
vt 0.697391 0.697391
vn 0.0000 -1.0000 0.0000
vn 0.0000 1.0000 -0.0000
vn 1.0000 -0.0000 0.0000
vn 0.0000 -0.0000 1.0000
vn -1.0000 0.0000 0.0000
vn 0.0000 0.0000 -1.0000
s off
f 2/1/1 4/2/1 1/3/1
f 8/4/2 6/5/2 5/6/2
f 5/7/3 2/8/3 1/3/3
f 6/9/4 3/10/4 2/11/4
f 3/12/5 8/13/5 4/2/5
f 1/14/6 8/15/6 5/6/6
f 2/1/1 3/16/1 4/2/1
f 8/4/2 7/17/2 6/5/2
f 5/7/3 6/18/3 2/8/3
f 6/9/4 7/17/4 3/10/4
f 3/12/5 7/19/5 8/13/5
f 1/14/6 4/20/6 8/15/6
