# Blender v2.79 (sub 0) OBJ File: 'clock.blend'
# www.blender.org
o Cube_Cube.020
v 0.577643 1.793204 0.250633
v 0.577643 2.463039 0.250633
v 0.577643 1.793204 -0.419203
v 0.577643 2.463039 -0.419203
v -0.474568 -1.017652 0.844953
v -0.474568 1.575421 0.844953
v -0.474568 -1.017652 -0.979698
v -0.474568 1.575421 -0.979698
v -0.844342 -1.426991 1.328207
v -0.844342 4.576788 1.328207
v -0.844342 -1.426991 -1.450490
v -0.844342 4.576788 -1.450490
v 0.977493 -1.426991 1.328207
v 0.977493 4.576788 1.328207
v 0.977493 -1.426991 -1.450490
v 0.977493 4.576788 -1.450490
v 0.977493 -1.017652 0.844953
v 0.977493 -1.017652 -0.979698
v 0.977493 1.575421 0.844953
v 0.977493 1.575421 -0.979698
v 0.977493 1.793204 0.250633
v 0.977493 1.793204 -0.419203
v 0.977493 2.463039 0.250633
v 0.977493 2.463039 -0.419203
v -0.982406 -1.608322 1.804684
v -0.982406 -1.507979 1.804684
v -0.982406 -1.608322 -1.847389
v -0.982406 -1.507979 -1.847389
v 1.175697 -1.608322 1.804684
v 1.175697 -1.507979 1.804684
v 1.175697 -1.608322 -1.847389
v 1.175697 -1.507979 -1.847389
v -0.982406 4.511712 1.574145
v -0.982406 4.612055 1.574145
v -0.982406 4.511712 -1.607447
v -0.982406 4.612055 -1.607447
v 1.175697 4.511712 1.574145
v 1.175697 4.612055 1.574145
v 1.175697 4.511712 -1.607447
v 1.175697 4.612055 -1.607447
v -0.991309 4.599661 1.391413
v -0.991309 4.700004 1.391413
v -0.991309 4.599661 -1.456696
v -0.991309 4.700004 -1.456696
v 1.166794 4.599661 1.391413
v 1.166794 4.700004 1.391413
v 1.166794 4.599661 -1.456696
v 1.166794 4.700004 -1.456696
v -1.000425 4.697342 1.184163
v -1.000425 4.797685 1.184163
v -1.000425 4.697342 -1.262081
v -1.000425 4.797685 -1.262081
v 1.157678 4.697342 1.184163
v 1.157678 4.797685 1.184163
v 1.157678 4.697342 -1.262081
v 1.157678 4.797685 -1.262081
v -1.002402 4.789392 1.018931
v -1.002402 4.878852 1.018931
v -1.002402 4.789392 -1.096868
v -1.002402 4.878852 -1.096868
v 1.147309 4.789392 1.018931
v 1.147309 4.878852 1.018931
v 1.147309 4.789392 -1.096868
v 1.147309 4.878852 -1.096868
v -0.977182 4.866757 0.910881
v -0.977182 4.956216 0.910881
v -0.977182 4.866757 -0.981747
v -0.977182 4.956216 -0.981747
v 1.148748 4.866757 0.910881
v 1.148748 4.956216 0.910881
v 1.148748 4.866757 -0.981747
v 1.148748 4.956216 -0.981747
v -0.985964 4.948710 0.740451
v -0.985964 5.038169 0.740451
v -0.985964 4.948710 -0.819800
v -0.985964 5.038169 -0.819800
v 1.139966 4.948710 0.740451
v 1.139966 5.038169 0.740451
v 1.139966 4.948710 -0.819800
v 1.139966 5.038169 -0.819800
v -0.995383 5.032518 0.618441
v -0.995383 5.121977 0.618441
v -0.995383 5.032518 -0.719882
v -0.995383 5.121977 -0.719882
v 1.130547 5.032518 0.618441
v 1.130547 5.121977 0.618441
v 1.130547 5.032518 -0.719882
v 1.130547 5.121977 -0.719882
vn 1.0000 0.0000 0.0000
vn 0.0000 0.0000 1.0000
vn 0.0000 1.0000 0.0000
vn -1.0000 0.0000 0.0000
vn 0.0000 0.0000 -1.0000
vn 0.0000 -1.0000 0.0000
s off
f 3//1 2//1 1//1
f 22//2 4//2 3//2
f 1//3 22//3 3//3
f 7//1 6//1 5//1
f 18//2 8//2 7//2
f 5//3 18//3 7//3
f 10//4 11//4 9//4
f 12//5 15//5 11//5
f 15//1 20//1 18//1
f 14//2 9//2 13//2
f 15//6 9//6 11//6
f 12//3 14//3 16//3
f 21//1 19//1 20//1
f 6//6 20//6 19//6
f 5//5 19//5 17//5
f 23//1 24//1 16//1
f 23//6 4//6 24//6
f 1//5 23//5 21//5
f 26//4 27//4 25//4
f 28//5 31//5 27//5
f 32//1 29//1 31//1
f 30//2 25//2 29//2
f 31//6 25//6 27//6
f 28//3 30//3 32//3
f 34//4 35//4 33//4
f 36//5 39//5 35//5
f 40//1 37//1 39//1
f 38//2 33//2 37//2
f 39//6 33//6 35//6
f 36//3 38//3 40//3
f 42//4 43//4 41//4
f 44//5 47//5 43//5
f 48//1 45//1 47//1
f 46//2 41//2 45//2
f 47//6 41//6 43//6
f 44//3 46//3 48//3
f 50//4 51//4 49//4
f 52//5 55//5 51//5
f 56//1 53//1 55//1
f 54//2 49//2 53//2
f 55//6 49//6 51//6
f 52//3 54//3 56//3
f 58//4 59//4 57//4
f 60//5 63//5 59//5
f 64//1 61//1 63//1
f 62//2 57//2 61//2
f 63//6 57//6 59//6
f 60//3 62//3 64//3
f 66//4 67//4 65//4
f 68//5 71//5 67//5
f 72//1 69//1 71//1
f 70//2 65//2 69//2
f 71//6 65//6 67//6
f 68//3 70//3 72//3
f 74//4 75//4 73//4
f 76//5 79//5 75//5
f 80//1 77//1 79//1
f 78//2 73//2 77//2
f 79//6 73//6 75//6
f 76//3 78//3 80//3
f 82//4 83//4 81//4
f 84//5 87//5 83//5
f 88//1 85//1 87//1
f 86//2 81//2 85//2
f 87//6 81//6 83//6
f 84//3 86//3 88//3
f 3//1 4//1 2//1
f 22//2 24//2 4//2
f 1//3 21//3 22//3
f 7//1 8//1 6//1
f 18//2 20//2 8//2
f 5//3 17//3 18//3
f 10//4 12//4 11//4
f 12//5 16//5 15//5
f 15//1 16//1 20//1
f 18//1 17//1 15//1
f 17//1 13//1 15//1
f 14//2 10//2 9//2
f 15//6 13//6 9//6
f 12//3 10//3 14//3
f 14//1 13//1 19//1
f 13//1 17//1 19//1
f 21//1 14//1 19//1
f 20//1 24//1 22//1
f 22//1 21//1 20//1
f 6//6 8//6 20//6
f 5//5 6//5 19//5
f 14//1 21//1 23//1
f 24//1 20//1 16//1
f 14//1 23//1 16//1
f 23//6 2//6 4//6
f 1//5 2//5 23//5
f 26//4 28//4 27//4
f 28//5 32//5 31//5
f 32//1 30//1 29//1
f 30//2 26//2 25//2
f 31//6 29//6 25//6
f 28//3 26//3 30//3
f 34//4 36//4 35//4
f 36//5 40//5 39//5
f 40//1 38//1 37//1
f 38//2 34//2 33//2
f 39//6 37//6 33//6
f 36//3 34//3 38//3
f 42//4 44//4 43//4
f 44//5 48//5 47//5
f 48//1 46//1 45//1
f 46//2 42//2 41//2
f 47//6 45//6 41//6
f 44//3 42//3 46//3
f 50//4 52//4 51//4
f 52//5 56//5 55//5
f 56//1 54//1 53//1
f 54//2 50//2 49//2
f 55//6 53//6 49//6
f 52//3 50//3 54//3
f 58//4 60//4 59//4
f 60//5 64//5 63//5
f 64//1 62//1 61//1
f 62//2 58//2 57//2
f 63//6 61//6 57//6
f 60//3 58//3 62//3
f 66//4 68//4 67//4
f 68//5 72//5 71//5
f 72//1 70//1 69//1
f 70//2 66//2 65//2
f 71//6 69//6 65//6
f 68//3 66//3 70//3
f 74//4 76//4 75//4
f 76//5 80//5 79//5
f 80//1 78//1 77//1
f 78//2 74//2 73//2
f 79//6 77//6 73//6
f 76//3 74//3 78//3
f 82//4 84//4 83//4
f 84//5 88//5 87//5
f 88//1 86//1 85//1
f 86//2 82//2 81//2
f 87//6 85//6 81//6
f 84//3 82//3 86//3
