# Blender v2.79 (sub 0) OBJ File: 'clockd.blend'
# www.blender.org
o Cube.007_Cube.016
v -0.985964 6.730685 0.715206
v -0.985964 6.641226 -0.845045
v -0.985964 6.641226 0.715206
v -0.985964 6.730685 -0.845045
v 1.139966 6.641226 -0.845045
v 1.139966 6.730685 -0.845045
v 1.139966 6.641226 0.715206
v 1.139966 6.730685 0.715206
v -0.982406 0.184536 1.804684
v -0.982406 0.084193 -1.847389
v -0.982406 0.084193 1.804684
v -0.982406 0.184536 -1.847389
v 1.175697 0.084193 -1.847389
v 1.175697 0.184536 -1.847389
v 1.175697 0.084193 1.804684
v 1.175697 0.184536 1.804684
v -0.982406 6.304567 1.574148
v -0.982406 6.204229 -1.607444
v -0.982406 6.204226 1.574148
v -0.982406 6.304571 -1.607444
v 1.175697 6.204229 -1.607444
v 1.175697 6.304571 -1.607444
v 1.175697 6.204226 1.574148
v 1.175697 6.304567 1.574148
v -0.991309 6.392519 1.391416
v -0.991309 6.292176 -1.456693
v -0.991309 6.292176 1.391416
v -0.991309 6.392519 -1.456693
v 1.166794 6.292176 -1.456693
v 1.166794 6.392519 -1.456693
v 1.166794 6.292176 1.391416
v 1.166794 6.392519 1.391416
v -1.000425 6.490201 1.184165
v -1.000425 6.389858 -1.262078
v -1.000425 6.389858 1.184165
v -1.000425 6.490201 -1.262078
v 1.157678 6.389858 -1.262078
v 1.157678 6.490201 -1.262078
v 1.157678 6.389858 1.184165
v 1.157678 6.490201 1.184165
v -1.002402 6.571367 1.018934
v -1.002402 6.481908 -1.096865
v -1.002402 6.481908 1.018934
v -1.002402 6.571367 -1.096865
v 1.147309 6.481908 -1.096865
v 1.147309 6.571367 -1.096865
v 1.147309 6.481908 1.018934
v 1.147309 6.571367 1.018934
v -0.977182 6.648731 0.910884
v -0.977182 6.559272 -0.981744
v -0.977182 6.559272 0.910884
v -0.977182 6.648731 -0.981744
v 1.148748 6.559272 -0.981744
v 1.148748 6.648731 -0.981744
v 1.148748 6.559272 0.910884
v 1.148748 6.648731 0.910884
v 0.577643 3.485720 -0.419202
v 0.577643 4.155555 0.250634
v 0.577643 3.485720 0.250634
v 0.977493 3.485720 -0.419202
v 0.577643 4.155555 -0.419202
v -0.474568 0.674863 -0.979698
v -0.474568 3.267937 0.844954
v -0.474568 0.674863 0.844953
v 0.977493 0.674863 -0.979698
v -0.474568 3.267937 -0.979697
v -0.844342 6.269304 1.328210
v -0.844342 0.265525 -1.450490
v -0.844342 0.265525 1.328207
v -0.844342 6.269304 -1.450487
v 0.977493 0.265525 -1.450490
v 0.977493 3.267937 -0.979697
v 0.977493 6.269304 1.328210
v 0.977493 0.265525 1.328207
v 0.977493 6.269304 -1.450487
v 0.977493 3.485720 0.250634
v 0.977493 3.267937 0.844954
v 0.977493 0.674863 0.844953
v 0.977493 4.155555 0.250634
v 0.977493 4.155555 -0.419202
v -0.995383 6.814493 0.597619
v -0.995383 6.725034 -0.740704
v -0.995383 6.725034 0.597619
v -0.995383 6.814493 -0.740704
v 1.130547 6.725034 -0.740704
v 1.130547 6.814493 -0.740704
v 1.130547 6.725034 0.597619
v 1.130547 6.814493 0.597619
vt 0.000000 0.000000
vt 1.000000 0.000000
vt 1.000000 1.000000
vt 0.000000 0.000000
vt 1.000000 0.000000
vt 1.000000 1.000000
vt 0.000000 0.000000
vt 1.000000 0.000000
vt 1.000000 1.000000
vt 0.000000 0.000000
vt 1.000000 0.000000
vt 1.000000 1.000000
vt 0.000000 0.000000
vt 1.000000 0.000000
vt 1.000000 1.000000
vt 0.000000 0.000000
vt 1.000000 0.000000
vt 1.000000 1.000000
vt 0.000000 0.000000
vt 1.000000 0.000000
vt 1.000000 1.000000
vt 0.000000 0.000000
vt 1.000000 0.000000
vt 1.000000 1.000000
vt 0.000000 0.000000
vt 1.000000 0.000000
vt 1.000000 1.000000
vt 0.000000 0.000000
vt 1.000000 0.000000
vt 1.000000 1.000000
vt 0.000000 0.000000
vt 1.000000 0.000000
vt 1.000000 1.000000
vt 0.000000 0.000000
vt 1.000000 0.000000
vt 1.000000 1.000000
vt 0.000000 0.000000
vt 1.000000 0.000000
vt 1.000000 1.000000
vt 0.000000 0.000000
vt 1.000000 0.000000
vt 1.000000 1.000000
vt 0.000000 0.000000
vt 1.000000 0.000000
vt 1.000000 1.000000
vt 0.000000 0.000000
vt 1.000000 0.000000
vt 1.000000 1.000000
vt 0.000000 0.000000
vt 1.000000 0.000000
vt 1.000000 1.000000
vt 0.000000 0.000000
vt 1.000000 0.000000
vt 1.000000 1.000000
vt 0.000000 0.000000
vt 1.000000 0.000000
vt 1.000000 1.000000
vt 0.000000 0.000000
vt 1.000000 0.000000
vt 1.000000 1.000000
vt 0.000000 0.000000
vt 1.000000 0.000000
vt 1.000000 1.000000
vt 0.000000 0.000000
vt 1.000000 0.000000
vt 1.000000 1.000000
vt 0.000000 0.000000
vt 1.000000 0.000000
vt 1.000000 1.000000
vt 0.000000 0.000000
vt 1.000000 0.000000
vt 1.000000 1.000000
vt 0.000000 0.000000
vt 1.000000 0.000000
vt 1.000000 1.000000
vt 0.000000 0.000000
vt 1.000000 0.000000
vt 1.000000 1.000000
vt 0.000000 0.000000
vt 1.000000 0.000000
vt 1.000000 1.000000
vt 0.000000 0.000000
vt 1.000000 0.000000
vt 1.000000 1.000000
vt 0.000000 0.000000
vt 1.000000 0.000000
vt 1.000000 1.000000
vt 0.000000 0.000000
vt 1.000000 0.000000
vt 1.000000 1.000000
vt 0.000000 0.000000
vt 1.000000 0.000000
vt 1.000000 1.000000
vt 0.000000 0.000000
vt 1.000000 0.000000
vt 1.000000 1.000000
vt 0.000000 0.000000
vt 1.000000 0.000000
vt 1.000000 1.000000
vt 0.000000 0.000000
vt 1.000000 0.000000
vt 1.000000 1.000000
vt 0.000000 0.000000
vt 1.000000 0.000000
vt 1.000000 1.000000
vt 0.000000 0.000000
vt 1.000000 0.000000
vt 1.000000 1.000000
vt 0.000000 0.000000
vt 1.000000 0.000000
vt 1.000000 1.000000
vt 0.000000 0.000000
vt 1.000000 0.000000
vt 0.000000 0.000000
vt 1.000000 0.000000
vt 1.000000 1.000000
vt 0.000000 0.000000
vt 1.000000 0.000000
vt 1.000000 1.000000
vt 0.000000 0.000000
vt 1.000000 0.000000
vt 0.000000 0.000000
vt 1.000000 0.000000
vt 1.000000 1.000000
vt 0.000000 0.000000
vt 1.000000 0.000000
vt 1.000000 1.000000
vt 0.000000 0.000000
vt 1.000000 0.000000
vt 1.000000 1.000000
vt 0.000000 0.000000
vt 1.000000 0.000000
vt 1.000000 1.000000
vt 1.000000 0.000000
vt 1.000000 1.000000
vt 0.000000 0.000000
vt 1.000000 0.000000
vt 1.000000 1.000000
vt 0.000000 0.000000
vt 1.000000 1.000000
vt 1.000000 1.000000
vt 0.000000 0.000000
vt 1.000000 0.000000
vt 0.000000 0.000000
vt 1.000000 1.000000
vt 1.000000 0.000000
vt 1.000000 1.000000
vt 0.000000 0.000000
vt 1.000000 0.000000
vt 1.000000 1.000000
vt 0.000000 0.000000
vt 1.000000 0.000000
vt 1.000000 1.000000
vt 0.000000 0.000000
vt 1.000000 0.000000
vt 1.000000 1.000000
vt 0.000000 0.000000
vt 1.000000 0.000000
vt 1.000000 1.000000
vt 0.000000 0.000000
vt 1.000000 0.000000
vt 1.000000 1.000000
vt 1.000000 0.000000
vt 1.000000 0.000000
vt 1.000000 0.000000
vt 1.000000 1.000000
vt 1.000000 0.000000
vt 1.000000 0.000000
vt 1.000000 0.000000
vt 1.000000 1.000000
vt 1.000000 0.000000
vt 1.000000 0.000000
vt 1.000000 0.000000
vt 1.000000 1.000000
vt 1.000000 0.000000
vt 1.000000 0.000000
vt 1.000000 0.000000
vt 1.000000 1.000000
vt 1.000000 0.000000
vt 1.000000 0.000000
vt 1.000000 0.000000
vt 1.000000 1.000000
vt 1.000000 0.000000
vt 1.000000 0.000000
vt 1.000000 0.000000
vt 1.000000 1.000000
vt 1.000000 0.000000
vt 1.000000 0.000000
vt 1.000000 0.000000
vt 1.000000 1.000000
vt 1.000000 1.000000
vt 1.000000 1.000000
vt 1.000000 0.000000
vt 1.000000 1.000000
vt 1.000000 1.000000
vt 1.000000 1.000000
vt 1.000000 0.000000
vt 1.000000 0.000000
vt 1.000000 0.000000
vt 1.000000 1.000000
vt 0.000000 0.000000
vt 1.000000 0.000000
vt 1.000000 0.000000
vt 1.000000 1.000000
vt 0.000000 0.000000
vt 0.000000 0.000000
vt 0.000000 0.000000
vt 1.000000 1.000000
vt 1.000000 0.000000
vt 1.000000 0.000000
vt 1.000000 0.000000
vt 1.000000 1.000000
vn -1.0000 0.0000 0.0000
vn 0.0000 0.0000 -1.0000
vn 1.0000 0.0000 0.0000
vn 0.0000 0.0000 1.0000
vn 0.0000 -1.0000 0.0000
vn 0.0000 1.0000 0.0000
s 1
f 1/1/1 2/2/1 3/3/1
f 4/4/2 5/5/2 2/6/2
f 6/7/3 7/8/3 5/9/3
f 8/10/4 3/11/4 7/12/4
f 5/13/5 3/11/5 2/6/5
f 4/4/6 8/14/6 6/15/6
f 9/16/1 10/17/1 11/18/1
f 12/19/2 13/20/2 10/21/2
f 14/22/3 15/23/3 13/24/3
f 16/25/4 11/26/4 15/27/4
f 13/28/5 11/26/5 10/21/5
f 12/19/6 16/29/6 14/30/6
f 17/31/1 18/32/1 19/33/1
f 20/34/2 21/35/2 18/36/2
f 22/37/3 23/38/3 21/39/3
f 24/40/4 19/41/4 23/42/4
f 21/43/5 19/41/5 18/36/5
f 20/34/6 24/44/6 22/45/6
f 25/46/1 26/47/1 27/48/1
f 28/49/2 29/50/2 26/51/2
f 30/52/3 31/53/3 29/54/3
f 32/55/4 27/56/4 31/57/4
f 29/58/5 27/56/5 26/51/5
f 28/49/6 32/59/6 30/60/6
f 33/61/1 34/62/1 35/63/1
f 36/64/2 37/65/2 34/66/2
f 38/67/3 39/68/3 37/69/3
f 40/70/4 35/71/4 39/72/4
f 37/73/5 35/71/5 34/66/5
f 36/64/6 40/74/6 38/75/6
f 41/76/1 42/77/1 43/78/1
f 44/79/2 45/80/2 42/81/2
f 46/82/3 47/83/3 45/84/3
f 48/85/4 43/86/4 47/87/4
f 45/88/5 43/86/5 42/81/5
f 44/79/6 48/89/6 46/90/6
f 49/91/1 50/92/1 51/93/1
f 52/94/2 53/95/2 50/96/2
f 54/97/3 55/98/3 53/99/3
f 56/100/4 51/101/4 55/102/4
f 53/103/5 51/101/5 50/96/5
f 52/94/6 56/104/6 54/105/6
f 57/106/3 58/107/3 59/108/3
f 60/109/4 61/110/4 57/111/4
f 59/112/6 60/113/6 57/111/6
f 62/114/3 63/115/3 64/116/3
f 65/117/4 66/118/4 62/119/4
f 64/120/6 65/121/6 62/119/6
f 67/122/1 68/123/1 69/124/1
f 70/125/2 71/126/2 68/127/2
f 71/128/3 72/129/3 65/130/3
f 73/131/4 69/132/4 74/133/4
f 71/128/5 69/132/5 68/127/5
f 70/125/6 73/134/6 75/135/6
f 76/136/3 77/137/3 72/138/3
f 63/139/5 72/129/5 77/140/5
f 64/120/2 77/137/2 78/141/2
f 79/142/3 80/143/3 75/135/3
f 58/144/5 80/143/5 79/145/5
f 59/112/2 79/146/2 76/147/2
f 81/148/1 82/149/1 83/150/1
f 84/151/2 85/152/2 82/153/2
f 86/154/3 87/155/3 85/156/3
f 88/157/4 83/158/4 87/159/4
f 85/160/5 83/158/5 82/153/5
f 84/151/6 88/161/6 86/162/6
f 1/1/1 4/163/1 2/6/1
f 4/4/2 6/164/2 5/9/2
f 6/7/3 8/14/3 7/12/3
f 8/10/4 1/165/4 3/3/4
f 5/13/5 7/8/5 3/3/5
f 4/4/6 1/165/6 8/166/6
f 9/16/1 12/167/1 10/21/1
f 12/19/2 14/168/2 13/24/2
f 14/22/3 16/29/3 15/27/3
f 16/25/4 9/169/4 11/18/4
f 13/28/5 15/23/5 11/18/5
f 12/19/6 9/169/6 16/170/6
f 17/31/1 20/171/1 18/36/1
f 20/34/2 22/172/2 21/39/2
f 22/37/3 24/44/3 23/42/3
f 24/40/4 17/173/4 19/33/4
f 21/43/5 23/38/5 19/33/5
f 20/34/6 17/173/6 24/174/6
f 25/46/1 28/175/1 26/51/1
f 28/49/2 30/176/2 29/54/2
f 30/52/3 32/59/3 31/57/3
f 32/55/4 25/177/4 27/48/4
f 29/58/5 31/53/5 27/48/5
f 28/49/6 25/177/6 32/178/6
f 33/61/1 36/179/1 34/66/1
f 36/64/2 38/180/2 37/69/2
f 38/67/3 40/74/3 39/72/3
f 40/70/4 33/181/4 35/63/4
f 37/73/5 39/68/5 35/63/5
f 36/64/6 33/181/6 40/182/6
f 41/76/1 44/183/1 42/81/1
f 44/79/2 46/184/2 45/84/2
f 46/82/3 48/89/3 47/87/3
f 48/85/4 41/185/4 43/78/4
f 45/88/5 47/83/5 43/78/5
f 44/79/6 41/185/6 48/186/6
f 49/91/1 52/187/1 50/96/1
f 52/94/2 54/188/2 53/99/2
f 54/97/3 56/104/3 55/102/3
f 56/100/4 49/189/4 51/93/4
f 53/103/5 55/98/5 51/93/5
f 52/94/6 49/189/6 56/190/6
f 57/106/3 61/110/3 58/191/3
f 60/109/4 80/143/4 61/192/4
f 59/112/6 76/193/6 60/194/6
f 62/114/3 66/118/3 63/195/3
f 65/117/4 72/129/4 66/196/4
f 64/120/6 78/197/6 65/130/6
f 67/122/1 70/198/1 68/127/1
f 70/125/2 75/199/2 71/200/2
f 71/128/3 75/199/3 72/138/3
f 65/117/3 78/197/3 71/200/3
f 78/201/3 74/202/3 71/200/3
f 73/131/4 67/203/4 69/124/4
f 71/128/5 74/202/5 69/124/5
f 70/125/6 67/203/6 73/204/6
f 73/131/3 74/202/3 77/140/3
f 74/205/3 78/197/3 77/140/3
f 76/136/3 73/134/3 77/140/3
f 72/206/3 80/143/3 60/194/3
f 60/109/3 76/193/3 72/138/3
f 63/139/5 66/118/5 72/138/5
f 64/120/2 63/115/2 77/140/2
f 73/131/3 76/193/3 79/145/3
f 80/207/3 72/129/3 75/135/3
f 73/131/3 79/146/3 75/135/3
f 58/144/5 61/110/5 80/208/5
f 59/112/2 58/107/2 79/145/2
f 81/148/1 84/209/1 82/153/1
f 84/151/2 86/210/2 85/156/2
f 86/154/3 88/161/3 87/159/3
f 88/157/4 81/211/4 83/150/4
f 85/160/5 87/155/5 83/150/5
f 84/151/6 81/211/6 88/212/6
