# Blender v2.79 (sub 0) OBJ File: 'clock.blend'
# www.blender.org
o Cube.007_Cube.016
v -0.985964 4.948710 0.715203
v -0.985964 5.038169 0.715203
v -0.985964 4.948710 -0.845048
v -0.985964 5.038169 -0.845048
v 1.139966 4.948710 0.715203
v 1.139966 5.038169 0.715203
v 1.139966 4.948710 -0.845048
v 1.139966 5.038169 -0.845048
v -0.982406 -1.608323 1.804684
v -0.982406 -1.507980 1.804684
v -0.982406 -1.608323 -1.847389
v -0.982406 -1.507980 -1.847389
v 1.175697 -1.608323 1.804684
v 1.175697 -1.507980 1.804684
v 1.175697 -1.608323 -1.847389
v 1.175697 -1.507980 -1.847389
v -0.982406 4.511712 1.574145
v -0.982406 4.612054 1.574145
v -0.982406 4.511712 -1.607447
v -0.982406 4.612054 -1.607447
v 1.175697 4.511712 1.574145
v 1.175697 4.612054 1.574145
v 1.175697 4.511712 -1.607447
v 1.175697 4.612054 -1.607447
v -0.991309 4.599660 1.391413
v -0.991309 4.700003 1.391413
v -0.991309 4.599660 -1.456696
v -0.991309 4.700003 -1.456696
v 1.166794 4.599660 1.391413
v 1.166794 4.700003 1.391413
v 1.166794 4.599660 -1.456696
v 1.166794 4.700003 -1.456696
v -1.000425 4.697342 1.184162
v -1.000425 4.797685 1.184162
v -1.000425 4.697342 -1.262081
v -1.000425 4.797685 -1.262081
v 1.157678 4.697342 1.184162
v 1.157678 4.797685 1.184162
v 1.157678 4.697342 -1.262081
v 1.157678 4.797685 -1.262081
v -1.002402 4.789392 1.018931
v -1.002402 4.878851 1.018931
v -1.002402 4.789392 -1.096868
v -1.002402 4.878851 -1.096868
v 1.147309 4.789392 1.018931
v 1.147309 4.878851 1.018931
v 1.147309 4.789392 -1.096868
v 1.147309 4.878851 -1.096868
v -0.977182 4.866756 0.910881
v -0.977182 4.956215 0.910881
v -0.977182 4.866756 -0.981747
v -0.977182 4.956215 -0.981747
v 1.148748 4.866756 0.910881
v 1.148748 4.956215 0.910881
v 1.148748 4.866756 -0.981747
v 1.148748 4.956215 -0.981747
v 0.577643 1.793204 0.250633
v 0.577643 2.463039 0.250633
v 0.577643 1.793204 -0.419203
v 0.577643 2.463039 -0.419203
v -0.474568 -1.017653 0.844953
v -0.474568 1.575421 0.844953
v -0.474568 -1.017653 -0.979698
v -0.474568 1.575421 -0.979698
v -0.844342 -1.426991 1.328207
v -0.844342 4.576788 1.328207
v -0.844342 -1.426991 -1.450490
v -0.844342 4.576788 -1.450490
v 0.977493 -1.426991 1.328207
v 0.977493 4.576788 1.328207
v 0.977493 -1.426991 -1.450490
v 0.977493 4.576788 -1.450490
v 0.977493 -1.017653 0.844953
v 0.977493 -1.017653 -0.979698
v 0.977493 1.575421 0.844953
v 0.977493 1.575421 -0.979698
v 0.977493 1.793204 0.250633
v 0.977493 1.793204 -0.419203
v 0.977493 2.463039 0.250633
v 0.977493 2.463039 -0.419203
v -0.995383 5.032518 0.597616
v -0.995383 5.121977 0.597616
v -0.995383 5.032518 -0.740707
v -0.995383 5.121977 -0.740707
v 1.130547 5.032518 0.597616
v 1.130547 5.121977 0.597616
v 1.130547 5.032518 -0.740707
v 1.130547 5.121977 -0.740707
vn -1.0000 0.0000 0.0000
vn 0.0000 0.0000 -1.0000
vn 1.0000 0.0000 0.0000
vn 0.0000 0.0000 1.0000
vn 0.0000 -1.0000 0.0000
vn 0.0000 1.0000 0.0000
s off
f 2//1 3//1 1//1
f 4//2 7//2 3//2
f 8//3 5//3 7//3
f 6//4 1//4 5//4
f 7//5 1//5 3//5
f 4//6 6//6 8//6
f 10//1 11//1 9//1
f 12//2 15//2 11//2
f 16//3 13//3 15//3
f 14//4 9//4 13//4
f 15//5 9//5 11//5
f 12//6 14//6 16//6
f 18//1 19//1 17//1
f 20//2 23//2 19//2
f 24//3 21//3 23//3
f 22//4 17//4 21//4
f 23//5 17//5 19//5
f 20//6 22//6 24//6
f 26//1 27//1 25//1
f 28//2 31//2 27//2
f 32//3 29//3 31//3
f 30//4 25//4 29//4
f 31//5 25//5 27//5
f 28//6 30//6 32//6
f 34//1 35//1 33//1
f 36//2 39//2 35//2
f 40//3 37//3 39//3
f 38//4 33//4 37//4
f 39//5 33//5 35//5
f 36//6 38//6 40//6
f 42//1 43//1 41//1
f 44//2 47//2 43//2
f 48//3 45//3 47//3
f 46//4 41//4 45//4
f 47//5 41//5 43//5
f 44//6 46//6 48//6
f 50//1 51//1 49//1
f 52//2 55//2 51//2
f 56//3 53//3 55//3
f 54//4 49//4 53//4
f 55//5 49//5 51//5
f 52//6 54//6 56//6
f 59//3 58//3 57//3
f 78//4 60//4 59//4
f 57//6 78//6 59//6
f 63//3 62//3 61//3
f 74//4 64//4 63//4
f 61//6 74//6 63//6
f 66//1 67//1 65//1
f 68//2 71//2 67//2
f 71//3 76//3 74//3
f 70//4 65//4 69//4
f 71//5 65//5 67//5
f 68//6 70//6 72//6
f 77//3 75//3 76//3
f 62//5 76//5 75//5
f 61//2 75//2 73//2
f 79//3 80//3 72//3
f 58//5 80//5 79//5
f 57//2 79//2 77//2
f 82//1 83//1 81//1
f 84//2 87//2 83//2
f 88//3 85//3 87//3
f 86//4 81//4 85//4
f 87//5 81//5 83//5
f 84//6 86//6 88//6
f 2//1 4//1 3//1
f 4//2 8//2 7//2
f 8//3 6//3 5//3
f 6//4 2//4 1//4
f 7//5 5//5 1//5
f 4//6 2//6 6//6
f 10//1 12//1 11//1
f 12//2 16//2 15//2
f 16//3 14//3 13//3
f 14//4 10//4 9//4
f 15//5 13//5 9//5
f 12//6 10//6 14//6
f 18//1 20//1 19//1
f 20//2 24//2 23//2
f 24//3 22//3 21//3
f 22//4 18//4 17//4
f 23//5 21//5 17//5
f 20//6 18//6 22//6
f 26//1 28//1 27//1
f 28//2 32//2 31//2
f 32//3 30//3 29//3
f 30//4 26//4 25//4
f 31//5 29//5 25//5
f 28//6 26//6 30//6
f 34//1 36//1 35//1
f 36//2 40//2 39//2
f 40//3 38//3 37//3
f 38//4 34//4 33//4
f 39//5 37//5 33//5
f 36//6 34//6 38//6
f 42//1 44//1 43//1
f 44//2 48//2 47//2
f 48//3 46//3 45//3
f 46//4 42//4 41//4
f 47//5 45//5 41//5
f 44//6 42//6 46//6
f 50//1 52//1 51//1
f 52//2 56//2 55//2
f 56//3 54//3 53//3
f 54//4 50//4 49//4
f 55//5 53//5 49//5
f 52//6 50//6 54//6
f 59//3 60//3 58//3
f 78//4 80//4 60//4
f 57//6 77//6 78//6
f 63//3 64//3 62//3
f 74//4 76//4 64//4
f 61//6 73//6 74//6
f 66//1 68//1 67//1
f 68//2 72//2 71//2
f 71//3 72//3 76//3
f 74//3 73//3 71//3
f 73//3 69//3 71//3
f 70//4 66//4 65//4
f 71//5 69//5 65//5
f 68//6 66//6 70//6
f 70//3 69//3 75//3
f 69//3 73//3 75//3
f 77//3 70//3 75//3
f 76//3 80//3 78//3
f 78//3 77//3 76//3
f 62//5 64//5 76//5
f 61//2 62//2 75//2
f 70//3 77//3 79//3
f 80//3 76//3 72//3
f 70//3 79//3 72//3
f 58//5 60//5 80//5
f 57//2 58//2 79//2
f 82//1 84//1 83//1
f 84//2 88//2 87//2
f 88//3 86//3 85//3
f 86//4 82//4 81//4
f 87//5 85//5 81//5
f 84//6 82//6 86//6
