# Blender v2.79 (sub 0) OBJ File: 'pendulum.blend'
# www.blender.org
o Cylinder.001
v -0.065766 -0.225281 0.387562
v -0.065766 3.680608 0.387562
v -0.088439 -0.225281 0.385329
v -0.088439 3.680608 0.385329
v -0.110242 -0.225281 0.378715
v -0.110242 3.680608 0.378715
v -0.130335 -0.225281 0.367975
v -0.130335 3.680608 0.367975
v -0.147947 -0.225281 0.353522
v -0.147947 3.680608 0.353522
v -0.162401 -0.225281 0.335910
v -0.162401 3.680608 0.335910
v -0.173141 -0.225281 0.315816
v -0.173141 3.680608 0.315816
v -0.179755 -0.225281 0.294014
v -0.179755 3.680608 0.294014
v -0.181988 -0.225281 0.271340
v -0.181988 3.680608 0.271340
v -0.179755 -0.225281 0.248666
v -0.179755 3.680608 0.248666
v -0.173141 -0.225281 0.226864
v -0.173141 3.680608 0.226864
v -0.162401 -0.225281 0.206770
v -0.162401 3.680608 0.206770
v -0.147947 -0.225281 0.189158
v -0.147947 3.680608 0.189158
v -0.130335 -0.225281 0.174705
v -0.130335 3.680608 0.174705
v -0.110242 -0.225281 0.163964
v -0.110242 3.680608 0.163964
v -0.088439 -0.225281 0.157351
v -0.088439 3.680608 0.157351
v -0.065765 -0.225281 0.155118
v -0.065765 3.680608 0.155118
v -0.043092 -0.225281 0.157351
v -0.043092 3.680608 0.157351
v -0.021289 -0.225281 0.163964
v -0.021289 3.680608 0.163964
v -0.001196 -0.225281 0.174705
v -0.001196 3.680608 0.174705
v 0.016416 -0.225281 0.189158
v 0.016416 3.680608 0.189158
v 0.030870 -0.225281 0.206770
v 0.030870 3.680608 0.206770
v 0.041610 -0.225281 0.226864
v 0.041610 3.680608 0.226864
v 0.048224 -0.225281 0.248666
v 0.048224 3.680608 0.248666
v 0.050457 -0.225281 0.271340
v 0.050457 3.680608 0.271340
v 0.048224 -0.225281 0.294014
v 0.048224 3.680608 0.294014
v 0.041610 -0.225281 0.315816
v 0.041610 3.680608 0.315816
v 0.030870 -0.225281 0.335910
v 0.030870 3.680608 0.335910
v 0.016416 -0.225281 0.353522
v 0.016416 3.680608 0.353522
v -0.001196 -0.225281 0.367975
v -0.001196 3.680608 0.367975
v -0.021289 -0.225281 0.378715
v -0.021289 3.680608 0.378715
v -0.043092 -0.225281 0.385329
v -0.043092 3.680608 0.385329
vn -0.0980 0.0000 0.9952
vn -0.2903 0.0000 0.9569
vn -0.4714 0.0000 0.8819
vn -0.6344 0.0000 0.7730
vn -0.7730 0.0000 0.6344
vn -0.8819 0.0000 0.4714
vn -0.9569 0.0000 0.2903
vn -0.9952 0.0000 0.0980
vn -0.9952 0.0000 -0.0980
vn -0.9569 0.0000 -0.2903
vn -0.8819 0.0000 -0.4714
vn -0.7730 0.0000 -0.6344
vn -0.6344 0.0000 -0.7730
vn -0.4714 0.0000 -0.8819
vn -0.2903 0.0000 -0.9569
vn -0.0980 0.0000 -0.9952
vn 0.0980 0.0000 -0.9952
vn 0.2903 0.0000 -0.9569
vn 0.4714 0.0000 -0.8819
vn 0.6344 0.0000 -0.7730
vn 0.7730 0.0000 -0.6344
vn 0.8819 0.0000 -0.4714
vn 0.9569 0.0000 -0.2903
vn 0.9952 0.0000 -0.0980
vn 0.9952 0.0000 0.0980
vn 0.9569 0.0000 0.2903
vn 0.8819 0.0000 0.4714
vn 0.7730 0.0000 0.6344
vn 0.6344 0.0000 0.7730
vn 0.4714 0.0000 0.8819
vn 0.0000 1.0000 0.0000
vn 0.2903 0.0000 0.9569
vn 0.0980 0.0000 0.9952
vn 0.0000 -1.0000 0.0000
vn 0.0000 1.0000 -0.0001
vn 0.0000 1.0000 0.0001
s off
f 2//1 3//1 1//1
f 4//2 5//2 3//2
f 6//3 7//3 5//3
f 8//4 9//4 7//4
f 10//5 11//5 9//5
f 12//6 13//6 11//6
f 14//7 15//7 13//7
f 16//8 17//8 15//8
f 18//9 19//9 17//9
f 20//10 21//10 19//10
f 22//11 23//11 21//11
f 24//12 25//12 23//12
f 26//13 27//13 25//13
f 28//14 29//14 27//14
f 30//15 31//15 29//15
f 32//16 33//16 31//16
f 34//17 35//17 33//17
f 36//18 37//18 35//18
f 38//19 39//19 37//19
f 40//20 41//20 39//20
f 42//21 43//21 41//21
f 44//22 45//22 43//22
f 46//23 47//23 45//23
f 48//24 49//24 47//24
f 50//25 51//25 49//25
f 52//26 53//26 51//26
f 54//27 55//27 53//27
f 56//28 57//28 55//28
f 58//29 59//29 57//29
f 60//30 61//30 59//30
f 54//31 38//31 22//31
f 62//32 63//32 61//32
f 64//33 1//33 63//33
f 15//34 31//34 47//34
f 2//1 4//1 3//1
f 4//2 6//2 5//2
f 6//3 8//3 7//3
f 8//4 10//4 9//4
f 10//5 12//5 11//5
f 12//6 14//6 13//6
f 14//7 16//7 15//7
f 16//8 18//8 17//8
f 18//9 20//9 19//9
f 20//10 22//10 21//10
f 22//11 24//11 23//11
f 24//12 26//12 25//12
f 26//13 28//13 27//13
f 28//14 30//14 29//14
f 30//15 32//15 31//15
f 32//16 34//16 33//16
f 34//17 36//17 35//17
f 36//18 38//18 37//18
f 38//19 40//19 39//19
f 40//20 42//20 41//20
f 42//21 44//21 43//21
f 44//22 46//22 45//22
f 46//23 48//23 47//23
f 48//24 50//24 49//24
f 50//25 52//25 51//25
f 52//26 54//26 53//26
f 54//27 56//27 55//27
f 56//28 58//28 57//28
f 58//29 60//29 59//29
f 60//30 62//30 61//30
f 6//31 4//31 2//31
f 2//31 64//31 6//31
f 64//31 62//31 6//31
f 62//31 60//31 58//31
f 58//35 56//35 54//35
f 54//31 52//31 50//31
f 50//31 48//31 54//31
f 48//31 46//31 54//31
f 46//36 44//36 38//36
f 44//31 42//31 38//31
f 42//31 40//31 38//31
f 38//35 36//35 34//35
f 34//35 32//35 30//35
f 30//36 28//36 26//36
f 26//31 24//31 22//31
f 22//31 20//31 18//31
f 18//31 16//31 22//31
f 16//31 14//31 22//31
f 14//31 12//31 10//31
f 10//31 8//31 6//31
f 62//31 58//31 6//31
f 58//31 54//31 6//31
f 38//31 34//31 22//31
f 34//31 30//31 22//31
f 30//31 26//31 22//31
f 14//31 10//31 22//31
f 10//31 6//31 22//31
f 54//31 46//31 38//31
f 6//31 54//31 22//31
f 62//32 64//32 63//32
f 64//33 2//33 1//33
f 63//34 1//34 3//34
f 3//34 5//34 7//34
f 7//34 9//34 11//34
f 11//34 13//34 7//34
f 13//34 15//34 7//34
f 15//34 17//34 19//34
f 19//34 21//34 15//34
f 21//34 23//34 15//34
f 23//34 25//34 31//34
f 25//34 27//34 31//34
f 27//34 29//34 31//34
f 31//34 33//34 35//34
f 35//34 37//34 39//34
f 39//34 41//34 43//34
f 43//34 45//34 47//34
f 47//34 49//34 51//34
f 51//34 53//34 55//34
f 55//34 57//34 63//34
f 57//34 59//34 63//34
f 59//34 61//34 63//34
f 63//34 3//34 7//34
f 31//34 35//34 47//34
f 35//34 39//34 47//34
f 39//34 43//34 47//34
f 47//34 51//34 63//34
f 51//34 55//34 63//34
f 63//34 7//34 15//34
f 15//34 23//34 31//34
f 63//34 15//34 47//34
o Cylinder
v 0.258465 -1.027732 0.455472
v 0.398032 -0.994708 0.113826
v 0.414357 -0.933753 0.528240
v 0.553924 -0.900729 0.186594
v 0.549083 -0.808191 0.595415
v 0.688650 -0.775167 0.253768
v 0.657465 -0.655870 0.654414
v 0.797032 -0.622846 0.312767
v 0.735340 -0.482643 0.702971
v 0.874907 -0.449620 0.361324
v 0.779713 -0.295169 0.739219
v 0.919280 -0.262145 0.397573
v 0.788880 -0.100652 0.761766
v 0.928447 -0.067628 0.420120
v 0.762488 0.093434 0.769745
v 0.902055 0.126458 0.428099
v 0.701552 0.279629 0.762850
v 0.841119 0.312653 0.421204
v 0.608413 0.450778 0.741345
v 0.747980 0.483802 0.399699
v 0.486651 0.600305 0.706057
v 0.626218 0.633329 0.364411
v 0.340945 0.722463 0.658342
v 0.480512 0.755487 0.316696
v 0.176894 0.812557 0.600034
v 0.316461 0.845580 0.258388
v 0.000803 0.867125 0.533373
v 0.140370 0.900149 0.191727
v -0.180561 0.884070 0.460922
v -0.040994 0.917094 0.119275
v -0.360229 0.862741 0.385463
v -0.220662 0.895765 0.043817
v -0.531296 0.803957 0.309898
v -0.391729 0.836981 -0.031748
v -0.687188 0.709979 0.237130
v -0.547621 0.743003 -0.104516
v -0.821914 0.584416 0.169956
v -0.682347 0.617440 -0.171691
v -0.930297 0.432095 0.110957
v -0.790730 0.465119 -0.230690
v -1.008171 0.258868 0.062400
v -0.868604 0.291892 -0.279247
v -1.052544 0.071394 0.026151
v -0.912977 0.104418 -0.315495
v -1.061711 -0.123123 0.003604
v -0.922144 -0.090099 -0.338042
v -1.035319 -0.317209 -0.004375
v -0.895752 -0.284185 -0.346022
v -0.974383 -0.503404 0.002520
v -0.834816 -0.470380 -0.339126
v -0.881244 -0.674554 0.024025
v -0.741677 -0.641530 -0.317621
v -0.759482 -0.824080 0.059313
v -0.619915 -0.791056 -0.282333
v -0.613775 -0.946238 0.107028
v -0.474208 -0.913214 -0.234618
v -0.449724 -1.036331 0.165337
v -0.310157 -1.003307 -0.176310
v -0.273633 -1.090899 0.231998
v -0.134066 -1.057875 -0.109649
v -0.092269 -1.107844 0.304449
v 0.047298 -1.074820 -0.037197
v 0.087399 -1.086515 0.379908
v 0.226966 -1.053491 0.038261
vn 0.4751 -0.8731 0.1097
vn 0.6211 -0.7628 0.1800
vn 0.7433 -0.6231 0.2434
vn 0.8368 -0.4596 0.2974
vn 0.8983 -0.2784 0.3400
vn 0.9252 -0.0864 0.3696
vn 0.9165 0.1088 0.3849
vn 0.8726 0.2999 0.3855
vn 0.7952 0.4794 0.3712
vn 0.6873 0.6405 0.3427
vn 0.5529 0.7770 0.3010
vn 0.3972 0.8837 0.2477
vn 0.2264 0.9563 0.1849
vn 0.0468 0.9923 0.1150
vn -0.1346 0.9901 0.0407
vn -0.3108 0.9498 -0.0352
vn -0.4751 0.8731 -0.1097
vn -0.6211 0.7628 -0.1800
vn -0.7433 0.6231 -0.2434
vn -0.8368 0.4596 -0.2974
vn -0.8983 0.2784 -0.3400
vn -0.9252 0.0864 -0.3696
vn -0.9165 -0.1088 -0.3849
vn -0.8726 -0.2999 -0.3855
vn -0.7952 -0.4794 -0.3712
vn -0.6873 -0.6405 -0.3427
vn -0.5529 -0.7770 -0.3010
vn -0.3972 -0.8837 -0.2477
vn -0.2264 -0.9563 -0.1849
vn -0.0468 -0.9923 -0.1150
vn 0.3767 0.0891 -0.9221
vn 0.1346 -0.9901 -0.0407
vn 0.3108 -0.9498 0.0352
vn -0.3767 -0.0891 0.9221
vn 0.3767 0.0891 -0.9220
vn -0.3767 -0.0891 0.9220
s off
f 66//37 67//37 65//37
f 68//38 69//38 67//38
f 70//39 71//39 69//39
f 72//40 73//40 71//40
f 74//41 75//41 73//41
f 76//42 77//42 75//42
f 78//43 79//43 77//43
f 80//44 81//44 79//44
f 82//45 83//45 81//45
f 84//46 85//46 83//46
f 86//47 87//47 85//47
f 88//48 89//48 87//48
f 90//49 91//49 89//49
f 92//50 93//50 91//50
f 94//51 95//51 93//51
f 96//52 97//52 95//52
f 98//53 99//53 97//53
f 100//54 101//54 99//54
f 102//55 103//55 101//55
f 104//56 105//56 103//56
f 106//57 107//57 105//57
f 108//58 109//58 107//58
f 110//59 111//59 109//59
f 112//60 113//60 111//60
f 114//61 115//61 113//61
f 116//62 117//62 115//62
f 118//63 119//63 117//63
f 120//64 121//64 119//64
f 122//65 123//65 121//65
f 124//66 125//66 123//66
f 118//67 102//67 86//67
f 126//68 127//68 125//68
f 128//69 65//69 127//69
f 79//70 95//70 111//70
f 66//37 68//37 67//37
f 68//38 70//38 69//38
f 70//39 72//39 71//39
f 72//40 74//40 73//40
f 74//41 76//41 75//41
f 76//42 78//42 77//42
f 78//43 80//43 79//43
f 80//44 82//44 81//44
f 82//45 84//45 83//45
f 84//46 86//46 85//46
f 86//47 88//47 87//47
f 88//48 90//48 89//48
f 90//49 92//49 91//49
f 92//50 94//50 93//50
f 94//51 96//51 95//51
f 96//52 98//52 97//52
f 98//53 100//53 99//53
f 100//54 102//54 101//54
f 102//55 104//55 103//55
f 104//56 106//56 105//56
f 106//57 108//57 107//57
f 108//58 110//58 109//58
f 110//59 112//59 111//59
f 112//60 114//60 113//60
f 114//61 116//61 115//61
f 116//62 118//62 117//62
f 118//63 120//63 119//63
f 120//64 122//64 121//64
f 122//65 124//65 123//65
f 124//66 126//66 125//66
f 70//67 68//67 66//67
f 66//67 128//67 70//67
f 128//71 126//71 70//71
f 126//67 124//67 122//67
f 122//71 120//71 118//71
f 118//71 116//71 114//71
f 114//67 112//67 118//67
f 112//67 110//67 118//67
f 110//67 108//67 102//67
f 108//67 106//67 102//67
f 106//71 104//71 102//71
f 102//67 100//67 98//67
f 98//67 96//67 94//67
f 94//71 92//71 90//71
f 90//67 88//67 86//67
f 86//71 84//71 82//71
f 82//67 80//67 86//67
f 80//71 78//71 86//71
f 78//67 76//67 74//67
f 74//71 72//71 70//71
f 126//67 122//67 70//67
f 122//67 118//67 70//67
f 102//67 98//67 86//67
f 98//67 94//67 86//67
f 94//67 90//67 86//67
f 78//67 74//67 86//67
f 74//67 70//67 86//67
f 118//67 110//67 102//67
f 70//67 118//67 86//67
f 126//68 128//68 127//68
f 128//69 66//69 65//69
f 127//72 65//72 67//72
f 67//70 69//70 71//70
f 71//72 73//72 75//72
f 75//72 77//72 71//72
f 77//70 79//70 71//70
f 79//70 81//70 83//70
f 83//72 85//72 79//72
f 85//70 87//70 79//70
f 87//72 89//72 95//72
f 89//70 91//70 95//70
f 91//72 93//72 95//72
f 95//70 97//70 99//70
f 99//70 101//70 103//70
f 103//72 105//72 107//72
f 107//70 109//70 111//70
f 111//70 113//70 115//70
f 115//72 117//72 119//72
f 119//72 121//72 127//72
f 121//70 123//70 127//70
f 123//70 125//70 127//70
f 127//70 67//70 71//70
f 95//70 99//70 111//70
f 99//70 103//70 111//70
f 103//70 107//70 111//70
f 111//70 115//70 127//70
f 115//70 119//70 127//70
f 127//70 71//70 79//70
f 79//70 87//70 95//70
f 127//70 79//70 111//70
